<svg data-name="Group 5385" xmlns="http://www.w3.org/2000/svg" width="68.979" height="69.535" viewBox="0 0 68.979 69.535">
    <g data-name="Group 5325">
        <path data-name="Path 9801" d="M1572.385-1192.733a1.162 1.162 0 0 1-.151.051c-.686.083-.686.083-.977-.539-.169-.36-.169-.36-.577-.326-.336.025-.671.055-1 .068a.366.366 0 0 0-.407.33 6.2 6.2 0 0 1-.2.68l-.83.062c.041-.152.067-.262.1-.37q.563-1.823 1.131-3.645c.09-.3.093-.308.4-.318.683-.019.507-.148.818.483.505 1.028 1 2.064 1.5 3.094.065.134.126.27.2.43m-2.283-2.978-.09.009-.446 1.556c.432-.028.793-.052 1.214-.082-.24-.536-.443-1.016-.678-1.482" transform="translate(-1538.616 1196.871)" style="fill:#a50c22"/>
    </g>
    <g data-name="Group 5326">
        <path data-name="Path 9802" d="M1572.638-1194.356a1.513 1.513 0 0 1 1.54-1.639 1.521 1.521 0 0 1 1.583 1.53 1.524 1.524 0 0 1-1.536 1.648 1.471 1.471 0 0 1-1.588-1.539m2.353-.088-.032-.006a1.733 1.733 0 0 0 0-.208.74.74 0 0 0-.649-.7.744.744 0 0 0-.819.545 1.371 1.371 0 0 0-.025.819.742.742 0 0 0 .675.555.717.717 0 0 0 .73-.473 3.527 3.527 0 0 0 .123-.534" transform="translate(-1536.806 1197.186)" style="fill:#a50c22"/>
    </g>
    <g data-name="Group 5327">
        <path data-name="Path 9803" d="m1575.99-1192.58-.73-.162c.229-.991.452-1.951.68-2.945l.661.136c-.01.131-.016.24-.025.4.12-.055.213-.1.312-.144a1.216 1.216 0 0 1 1.218.121.717.717 0 0 1 .337.645 2.6 2.6 0 0 1-.052.481c-.122.565-.254 1.125-.384 1.689-.014.066-.046.128-.079.23-.236-.057-.464-.109-.72-.168.107-.47.209-.908.3-1.344a5.736 5.736 0 0 0 .117-.613c.036-.342-.069-.515-.332-.6a.621.621 0 0 0-.731.241 1.283 1.283 0 0 0-.158.381c-.12.47-.228.943-.343 1.414-.016.065-.041.131-.076.24" transform="translate(-1535.726 1197.313)" style="fill:#a50c22"/>
    </g>
    <g data-name="Group 5328">
        <path data-name="Path 9804" d="M1571.589-1196.839h.735c.052.695 0 1.382 0 2.068s-.02 1.383-.031 2.1h-.762c-.016-1.386.069-2.754.059-4.168" transform="translate(-1537.263 1196.839)" style="fill:#a50c22"/>
    </g>
    <g data-name="Group 5329">
        <path data-name="Path 9805" d="M1603.859-1165.537a25.127 25.127 0 0 1-25.059 23.137 25.127 25.127 0 0 1-25.033-23.01 12.641 12.641 0 0 0 12.515 10.469 12.512 12.512 0 0 0 11.788-8.371c-.155-.1-.317-.2-.481-.3a8.971 8.971 0 0 1-3.289-3.409 6.409 6.409 0 0 1-.8-2.885 5.829 5.829 0 0 1 .854-3.245 11.978 11.978 0 0 1 1.107-1.509 15.166 15.166 0 0 0 2.115-3 7.241 7.241 0 0 0 .809-2.957 9.183 9.183 0 0 0-.219-2.171c-.1-.487-.172-.978-.251-1.47a2.116 2.116 0 0 1 0-.309 2.776 2.776 0 0 1 .276.141 16.254 16.254 0 0 1 5.421 6.167 10.98 10.98 0 0 1 1.147 5.241 10.978 10.978 0 0 1-1.6 5.61 10.518 10.518 0 0 1-2.362 2.572q-.459.371-.911.751c-.1.082-.18.179-.274.267a.412.412 0 0 0-.1.5 12.628 12.628 0 0 0 1.055 2.225 12.355 12.355 0 0 0 8.611 5.954 12.563 12.563 0 0 0 13.76-7.321 13.912 13.912 0 0 0 .926-3.07" transform="translate(-1544.573 1201.888)" style="fill:#a50c22"/>
    </g>
    <g data-name="Group 5330">
        <path data-name="Path 9806" d="m1553.486-1164.291-.24-.826a.838.838 0 0 1 .139-.1 1.5 1.5 0 0 0 .961-1.7 3.331 3.331 0 0 0-.339-1.231 1.284 1.284 0 0 0-.689-.653.921.921 0 0 0-1.275.646 9.058 9.058 0 0 0-.14 1.272c-.036.508-.038 1.018-.076 1.525a3.32 3.32 0 0 1-.13.644 2 2 0 0 1-3.052 1.1 2.588 2.588 0 0 1-1.012-1.247 4.34 4.34 0 0 1-.3-2.582 2.413 2.413 0 0 1 1.724-1.869 1.025 1.025 0 0 1 .167-.02l.256.826a1.487 1.487 0 0 1-.171.1 1.731 1.731 0 0 0-1.132 1.533 2.962 2.962 0 0 0 .6 2.216 1.137 1.137 0 0 0 1 .455.958.958 0 0 0 .892-.613 3.156 3.156 0 0 0 .193-.839c.047-.507.04-1.018.079-1.526a6.908 6.908 0 0 1 .16-1.2 1.734 1.734 0 0 1 1.646-1.4 1.924 1.924 0 0 1 1.8.9 3.782 3.782 0 0 1 .6 1.542 3.692 3.692 0 0 1 0 1.346 2.113 2.113 0 0 1-1.668 1.707" transform="translate(-1547.255 1207.973)" style="fill:#a50c22"/>
    </g>
    <g data-name="Group 5331">
        <path data-name="Path 9807" d="m1554.971-1161.455-.515.433.012.072a2.03 2.03 0 0 1 1.667.779 1.583 1.583 0 0 1 .227 1.827c.15.018.268.037.387.044a1.949 1.949 0 0 1 1.609 1.005 1.452 1.452 0 0 1-.178 1.852 2.892 2.892 0 0 1-.352.333q-1.45 1.137-2.9 2.267c-.045.035-.095.063-.182.123l-.539-.679c.108-.089.192-.168.281-.236.783-.615 1.57-1.225 2.35-1.841a5.4 5.4 0 0 0 .575-.5.841.841 0 0 0 .152-1.053 1.3 1.3 0 0 0-1.7-.637 3.231 3.231 0 0 0-.591.356c-.755.578-1.5 1.165-2.248 1.749-.1.076-.2.147-.32.237-.187-.237-.353-.455-.538-.69.109-.093.19-.171.281-.24.81-.637 1.625-1.265 2.431-1.906a3.663 3.663 0 0 0 .571-.555.82.82 0 0 0 .022-1.031 1.294 1.294 0 0 0-1.666-.511 4.676 4.676 0 0 0-.852.529c-.666.5-1.317 1.022-1.973 1.535-.1.077-.2.149-.323.24l-.554-.7 4.372-3.421c.171.213.322.4.5.617" transform="translate(-1546.082 1211.151)" style="fill:#a50c22"/>
    </g>
    <g data-name="Group 5332">
        <path data-name="Path 9808" d="m1563.106-1187.126.521.669-.587.5 2.877 3.691a1.723 1.723 0 0 1-.251.071c-.138.014-.28 0-.415.025a.679.679 0 0 1-.727-.327c-.645-.861-1.317-1.7-1.981-2.551-.076-.1-.158-.2-.255-.314a4.273 4.273 0 0 0-1.091.92c1.079 1.117 2.15 2.23 3.279 3.4-.391.066-.714.134-1.04.168-.078.008-.184-.079-.251-.148-.376-.378-.742-.765-1.113-1.146a9.908 9.908 0 0 0-.282-.267c-.328.364-.642.709-.975 1.077l.776.723a.376.376 0 0 1-.377.186c-.417-.005-.833-.01-1.249-.017a.449.449 0 0 1-.476-.278.514.514 0 0 1 .125-.572c.446-.485.884-.979 1.323-1.471.078-.086.15-.175.251-.3-.231-.239-.452-.467-.687-.712-.829.712-1.457 1.564-2.221 2.335l-.642-.569c.572-.634 1.117-1.242 1.672-1.859l.258.179.021-.027c-.05-.072-.1-.144-.154-.226a24.626 24.626 0 0 1 3.672-3.169" transform="translate(-1542.981 1200.837)" style="fill:#a50c22"/>
    </g>
    <g data-name="Group 5333">
        <path data-name="Path 9809" d="m1577.269-1187.118.078.737c-.275.027-.514.048-.752.078a1.345 1.345 0 0 0-.3.071.361.361 0 0 0-.287.416.377.377 0 0 0 .337.383 3.392 3.392 0 0 0 .718-.024 2.544 2.544 0 0 0 .4-.113l-.034.384a9.547 9.547 0 0 0 .777-2.106l-2.606-.728.227-.812a2.482 2.482 0 0 1 .253.038c.546.155 1.091.314 1.636.469l1.341.381a4.3 4.3 0 0 0-.311-.4 5.344 5.344 0 0 0-1.769-1.261.436.436 0 0 1-.319-.464c0-.229-.034-.456-.058-.759a7.517 7.517 0 0 1 1.012.48 7.475 7.475 0 0 1 .829.749 1.321 1.321 0 0 0-.023-.216c-.1-.3-.2-.59-.311-.884a.7.7 0 0 0-.4-.491.258.258 0 0 1-.127-.182c-.037-.3-.055-.6-.085-.964a7.827 7.827 0 0 1 .972.462.947.947 0 0 1 .311.486 19.003 19.003 0 0 1 .775 3.305c.041.272.122.461.414.507a1.027 1.027 0 0 1 .2.092l-.275.792-.729-.232c-.306.726-.543 1.471-.818 2.2s-.53 1.448-.82 2.245c-.229-.316-.425-.569-.6-.84a.417.417 0 0 1 .008-.291c.092-.3.2-.586.318-.928h-.435a1.367 1.367 0 0 1-1.419-1.321 1 1 0 0 1 .46-.95 2.092 2.092 0 0 1 1.412-.31" transform="translate(-1535.672 1198.693)" style="fill:#a50c22"/>
    </g>
    <g data-name="Group 5334">
        <path data-name="Path 9810" d="M1569.881-1189.385c-.023-.113-.051-.2-.059-.292-.014-.172-.017-.344-.027-.545.378-.034.733-.065 1.087-.093.289-.023.577-.045.867-.062a.651.651 0 0 1 .524.095c.055.048.179.024.269.024h1.989a1.879 1.879 0 0 1 .028.855l-.724.034c-.01.14-.023.261-.023.385 0 1.3 0 2.594-.006 3.89a.52.52 0 0 0 .24.487 1.225 1.225 0 0 1 .39 1.407 1.1 1.1 0 0 1-1.1.787 1.76 1.76 0 0 1-1.2-.381 3.89 3.89 0 0 1-.5-.474 11.346 11.346 0 0 1-1.047-1.486.5.5 0 0 1 .64.239 4.162 4.162 0 0 0 .95 1.1 1.337 1.337 0 0 0 1.289.315.582.582 0 0 0 .456-.547.449.449 0 0 0-.635-.479 1.73 1.73 0 0 0-.4.267 2.191 2.191 0 0 0-.23.25l-.446-.646a1.122 1.122 0 0 1 1.134-.59c-.028-.172-.16-.219-.257-.275a.426.426 0 0 1-.22-.432c.01-.555 0-1.11 0-1.666 0-.124-.01-.249-.018-.418-.545.045-1.062.072-1.572.136a.448.448 0 0 0-.364.546 1.85 1.85 0 0 0 .161.491 4.058 4.058 0 0 0 .842 1.139c.075.072.158.134.272.23l-.339.253a1.55 1.55 0 0 1-.194-.153c-.329-.387-.675-.762-.977-1.172a2.286 2.286 0 0 1-.462-1.429.894.894 0 0 1 .251-.664.69.69 0 0 1 .352-.2c.62-.066 1.242-.106 1.9-.159.028.206.055.382.079.562a3.49 3.49 0 0 0 .014-1.316l-.329-.02c-.069 0-.159.016-.2-.02-.206-.168-.437-.1-.663-.083-.484.031-.969.069-1.453.1-.09.006-.179 0-.279 0" transform="translate(-1537.976 1199.494)" style="fill:#a50c22"/>
    </g>
    <g data-name="Group 5335">
        <path data-name="Path 9811" d="m1580-1151.584-.882-2.593.841-.29c.837 2.427 1.663 4.828 2.5 7.268l-.768.265-.244-.585c-.058.1-.1.164-.129.229a2 2 0 0 1-1.978 1.127 2.467 2.467 0 0 1-1.879-1.165 4.01 4.01 0 0 1-.676-2.534 2.12 2.12 0 0 1 2.97-1.814c.048.027.1.039.241.092m-2.332 2.035a3.832 3.832 0 0 0 .7 1.938 1.544 1.544 0 0 0 1.131.668 1.406 1.406 0 0 0 1.511-1.519 3.612 3.612 0 0 0-.8-2.143 1.441 1.441 0 0 0-1.619-.485 1.484 1.484 0 0 0-.926 1.542" transform="translate(-1535.101 1214.281)" style="fill:#a50c22"/>
    </g>
    <g data-name="Group 5336">
        <path data-name="Path 9812" d="m1577.738-1153.452.192 1.012c-.295.062-.555.113-.827.169l-.158-.222a.993.993 0 0 0-.057.109q-.557 1.571-1.111 3.141l-1.313 3.732c-.114.322-.116.322-.466.333-.174.006-.346.01-.521.013-.034 0-.068-.008-.15-.017l-3.234-7.557 1.054-.049 2.66 6.71a1.361 1.361 0 0 0 .106-.2q1.048-3.2 2.1-6.4c.089-.277.1-.279.39-.3.147-.008.3-.012.453-.021.021-.11.04-.194.062-.306l.823-.151" transform="translate(-1537.853 1214.699)" style="fill:#a50c22"/>
    </g>
    <g data-name="Group 5337">
        <path data-name="Path 9813" d="M1590.077-1152.812c-.11.1-.185.167-.262.232l-.443.359c-.189-.123-.36-.236-.544-.353-.141.1-.12.268-.158.4a2.9 2.9 0 0 1-1.443 1.787 1.6 1.6 0 0 1-.966.22 1.554 1.554 0 0 1-1.29-2.073 2.628 2.628 0 0 1 .57-.9q.585-.642 1.158-1.292a4.43 4.43 0 0 0 .264-.372c-.154-.167-.291-.333-.449-.479a.759.759 0 0 0-.747-.168 2.242 2.242 0 0 0-1.328 1.049.96.96 0 0 0-.064.71c.027.123.072.243.124.414l-.733.442a1.666 1.666 0 0 1-.172-1.523 3.529 3.529 0 0 1 2.23-1.992 1.215 1.215 0 0 1 1.275.34 6.829 6.829 0 0 1 .553.621c.309.375.6.762.919 1.13a4.979 4.979 0 0 0 1.5 1.448m-2.661-1.411c-.236.306-.433.576-.645.833s-.457.522-.683.783a1.588 1.588 0 0 0-.161.226.835.835 0 0 0 .027 1 .873.873 0 0 0 1 .28 1.943 1.943 0 0 0 1.2-1.643 2.246 2.246 0 0 0-.737-1.481" transform="translate(-1532.343 1213.48)" style="fill:#a50c22"/>
    </g>
    <g data-name="Group 5338">
        <path data-name="Path 9814" d="m1564.823-1151.133-.771-.347a1.749 1.749 0 0 1 1.6-1.09 3.849 3.849 0 0 1 2.246.594 1.32 1.32 0 0 1 .638 1.581c-.189.761-.422 1.515-.625 2.274-.1.369-.192.739-.254 1.115a4.642 4.642 0 0 0-.007.719l-.529-.144c-.383-.109-.4-.13-.373-.529 0-.068.01-.134.017-.216-.161-.062-.281.039-.4.082a2.88 2.88 0 0 1-2.415-.189 1.5 1.5 0 0 1-.692-2.013 1.515 1.515 0 0 1 1.4-.916 8.446 8.446 0 0 1 1.172.088c.449.042.895.1 1.344.14.3.024.322 0 .4-.3a.947.947 0 0 0-.551-1.259 4.03 4.03 0 0 0-.958-.285 1.01 1.01 0 0 0-.987.385c-.08.1-.159.194-.257.314m2.445 1.879a1.247 1.247 0 0 0-.161-.038c-.518-.042-1.036-.086-1.556-.121a4.891 4.891 0 0 0-.692-.023.8.8 0 0 0-.754.613.806.806 0 0 0 .322.918 1.979 1.979 0 0 0 .693.295 1.606 1.606 0 0 0 1.718-.548 2.876 2.876 0 0 0 .429-1.1" transform="translate(-1540.732 1215.061)" style="fill:#a50c22"/>
    </g>
    <g data-name="Group 5339">
        <path data-name="Path 9815" d="M1557.809-1150.422a59.089 59.089 0 0 0-.692-.6l.264-.645-.431-.042a2.808 2.808 0 0 1-2.148-1.3 1.519 1.519 0 0 1 .905-2.319 1.683 1.683 0 0 1 1.212.145c.28.138.539.313.806.474.406.244.805.5 1.217.732.27.152.3.134.493-.1a.955.955 0 0 0 .016-1.4 3.952 3.952 0 0 0-.669-.6 1.058 1.058 0 0 0-1.208-.065c-.08.044-.161.083-.267.138-.185-.214-.365-.418-.562-.645a1.7 1.7 0 0 1 1.564-.417 3.6 3.6 0 0 1 2.189 1.7 1.287 1.287 0 0 1-.14 1.581c-.457.567-.943 1.112-1.416 1.667-.036.044-.076.085-.113.13a4.6 4.6 0 0 0-1.021 1.573m.937-2.864c-.086-.058-.121-.085-.158-.1q-.695-.391-1.388-.778a4.44 4.44 0 0 0-.55-.288.837.837 0 0 0-1.119.462.9.9 0 0 0 .152.915 1.984 1.984 0 0 0 .936.683 1.469 1.469 0 0 0 1.6-.33c.172-.168.331-.35.525-.559" transform="translate(-1544.253 1213.187)" style="fill:#a50c22"/>
    </g>
    <g data-name="Group 5340">
        <path data-name="Path 9816" d="m1592.779-1163.469-.37.761a1.763 1.763 0 0 1-1.037-1.7 3.966 3.966 0 0 1 .594-2.042 1.377 1.377 0 0 1 1.746-.682c.666.191 1.321.421 1.985.624a5.172 5.172 0 0 0 2.024.4c-.085.264-.157.493-.229.723a.212.212 0 0 1-.239.156c-.148-.005-.3-.014-.5-.025.044.161.076.3.119.436a2.857 2.857 0 0 1-.233 2.281 1.508 1.508 0 0 1-1.7.846 1.529 1.529 0 0 1-1.244-1.509 7.9 7.9 0 0 1 .1-1.137c.061-.481.144-.961.2-1.443.035-.292.007-.313-.257-.4a.969.969 0 0 0-1.325.541 4.224 4.224 0 0 0-.306 1.022.917.917 0 0 0 .317.843c.107.1.22.2.344.309m1.939-2.345c-.047.446-.086.871-.135 1.293-.035.309-.1.617-.121.926a.856.856 0 0 0 .651.94.869.869 0 0 0 .991-.456 1.979 1.979 0 0 0 .213-1.505 1.716 1.716 0 0 0-1.6-1.2" transform="translate(-1529.094 1209.033)" style="fill:#a50c22"/>
    </g>
    <g data-name="Group 5341">
        <path data-name="Path 9817" d="M1595.14-1158.21c-.144.264-.273.5-.425.771-2.255-1.238-4.478-2.48-6.728-3.727l.44-.786 2.4 1.323c-.027-.176-.037-.276-.056-.377a2.292 2.292 0 0 1 .977-2.291 1.4 1.4 0 0 1 1.2-.174 4.007 4.007 0 0 1 .768.315c1.007.547 2.006 1.107 3.007 1.661.049.028.095.062.173.116-.14.254-.274.5-.418.765-.13-.065-.233-.113-.332-.167-.9-.5-1.8-1-2.7-1.495a2.883 2.883 0 0 0-.57-.248 1 1 0 0 0-1.118.353 1.425 1.425 0 0 0 .218 2.115c.529.37 1.109.668 1.672.99.429.247.87.481 1.3.724.058.032.113.075.2.133" transform="translate(-1530.487 1210.549)" style="fill:#a50c22"/>
    </g>
    <g data-name="Group 5342">
        <path data-name="Path 9818" d="M1586.5-1177.841c-.152.075-.264.134-.38.185-.252.11-.433-.006-.443-.282a.6.6 0 0 1 .018-.208c.107-.354.215-.709.337-1.056a.638.638 0 0 1 .178-.25c.241-.22.4-.192.572.083.035.056.079.109.143.195.388-.214.769-.425 1.173-.646a8.932 8.932 0 0 0-.723-1.228c-1.344.838-2.654 1.654-4 2.5a1.769 1.769 0 0 1-.032-.262c.005-.183.04-.37.03-.553a.472.472 0 0 1 .267-.473c.958-.582 1.906-1.183 2.856-1.779.107-.066.211-.137.349-.229-.1-.189-.2-.366-.314-.579l.722-.453a43.89 43.89 0 0 1 2.5 4.225l-.733.408c-.157-.264-.3-.5-.451-.76l-1.205.668c.211.388.405.75.624 1.155l-.841.474-.647-1.131" transform="translate(-1532.398 1202.585)" style="fill:#a50c22"/>
    </g>
    <g data-name="Group 5343">
        <path data-name="Path 9819" d="M1562.048-1186.529c.445-.249.868-.484 1.292-.719l1.295-.723a1.007 1.007 0 0 0-.177-.15c-.36-.157-.717-.325-1.087-.455a1.24 1.24 0 0 0-1.1.095.452.452 0 0 1-.621-.067 6.509 6.509 0 0 0-.56-.43 2.157 2.157 0 0 1 1.749-.4 9.473 9.473 0 0 1 2.082.937.4.4 0 0 0 .566-.011c.148.261.279.5.431.76l-.77.456.81 1.488-.682.378c-.151.085-.305.167-.453.255a.646.646 0 0 0-.239.947.9.9 0 0 0 1.338.164.692.692 0 0 0-.069-.1.542.542 0 0 1-.1-.692.679.679 0 0 1 .69-.367.447.447 0 0 1 .245.111c.26.3.518.607.373 1.053a.491.491 0 0 0 0 .124 2.106 2.106 0 0 1 .843.559c-.188.106-.362.206-.515.3-.234-.135-.44-.257-.648-.374a.314.314 0 0 0-.328.006 1.884 1.884 0 0 1-2.491-.726 2.226 2.226 0 0 1-.264-.707.753.753 0 0 1 .455-.882c.2-.115.4-.228.6-.345.02-.01.032-.032.082-.089-.113-.211-.236-.438-.379-.7l-1.94 1.066c-.144-.256-.275-.494-.422-.757" transform="translate(-1541.561 1199.881)" style="fill:#a50c22"/>
    </g>
    <g data-name="Group 5344">
        <path data-name="Path 9820" d="M1551.082-1159.605a2.133 2.133 0 0 1-1.389-.532 2.784 2.784 0 0 1-1.008-1.881 2.27 2.27 0 0 1 .871-2.117 4.155 4.155 0 0 1 2.208-.933 2.213 2.213 0 0 1 1.458.344 2.794 2.794 0 0 1 1.221 2.727 2.341 2.341 0 0 1-.607 1.225 4.238 4.238 0 0 1-2.754 1.166m.9-4.561a3.3 3.3 0 0 0-2.087.966 1.482 1.482 0 0 0-.312 1.732 1.471 1.471 0 0 0 1.484.943 3.078 3.078 0 0 0 2.17-.956 1.488 1.488 0 0 0 .311-1.732 1.565 1.565 0 0 0-1.565-.953" transform="translate(-1546.673 1209.912)" style="fill:#a50c22"/>
    </g>
    <g data-name="Group 5345">
        <path data-name="Path 9821" d="m1556.831-1179.488-.373.547c-.24-.147-.462-.284-.713-.435a26.324 26.324 0 0 1 2.612-3.962l.679.484-.432.644c1.261.919 2.509 1.831 3.81 2.781a4.555 4.555 0 0 1-.978.349c-.1.021-.236-.071-.332-.141-.9-.647-1.8-1.3-2.7-1.954l-.36-.251a5.914 5.914 0 0 0-.73 1.11l4.029 2.425a3.938 3.938 0 0 1-.945.46c-.079.03-.216-.055-.31-.113-.943-.562-1.884-1.129-2.825-1.694-.137-.083-.277-.16-.435-.25" transform="translate(-1543.76 1202.397)" style="fill:#a50c22"/>
    </g>
    <g data-name="Group 5346">
        <path data-name="Path 9822" d="m1579.851-1152.43.847-.453 3.474 3.173a.606.606 0 0 0 .02-.138l-.531-3.463c-.044-.286-.072-.575-.122-.858a.25.25 0 0 1 .15-.309c.2-.092.387-.2.614-.313.078.558.15 1.072.218 1.584.2 1.536.412 3.072.6 4.61a9.375 9.375 0 0 1 .087 1.348 1.367 1.367 0 0 1-1.043 1.354c-.254.07-.28.063-.433-.151-.1-.141-.192-.285-.305-.453.133-.058.246-.1.357-.152a.933.933 0 0 0 .641-1.033v-.034a1.436 1.436 0 0 0-.563-1.188c-1.276-1.07-2.515-2.188-3.765-3.289-.076-.066-.147-.139-.247-.233" transform="translate(-1533.836 1214.148)" style="fill:#a50c22"/>
    </g>
    <g data-name="Group 5347">
        <path data-name="Path 9823" d="M1561.834-1154.427c.316.167.577.3.854.453l-.687 4.661c1.184-1.072 2.336-2.116 3.5-3.166l.754.4a1.267 1.267 0 0 1-.152.2c-1.647 1.457-3.291 2.915-4.948 4.359a3.732 3.732 0 0 1-.867.565 1.326 1.326 0 0 1-1.484-.258.283.283 0 0 1-.1-.363c.075-.178.147-.358.23-.567.137.092.247.171.363.24a.941.941 0 0 0 1.213-.088 1.527 1.527 0 0 0 .662-1.14c.157-1.553.378-3.1.575-4.647.026-.193.055-.385.093-.645" transform="translate(-1542.556 1214.298)" style="fill:#a50c22"/>
    </g>
    <g data-name="Group 5348">
        <path data-name="Path 9824" d="M1582.174-1186.75c.165-.143.33-.282.525-.449.064.049.185.139.3.229.448.35.891.7 1.34 1.047.106.083.2.159.113.319l.2-.116 2.125 1.979-.573.634a28.4 28.4 0 0 0-2.853-2.448l-2.912 3.724c-.121-.373-.233-.673-.312-.981a.4.4 0 0 1 .1-.274c.172-.241.359-.474.566-.744a9.149 9.149 0 0 1-.241-.058 1.393 1.393 0 0 1-.779-2.135 1.073 1.073 0 0 1 1.193-.43c.623.146.689.239.641.864-.007.067-.022.13-.041.223a2.948 2.948 0 0 0-.368-.138 4.5 4.5 0 0 0-.745-.123.642.642 0 0 0-.375.144.286.286 0 0 0 0 .5 1.118 1.118 0 0 0 .709.238h.73l1.1-1.406c-.14-.116-.256-.209-.37-.3-.092-.076-.179-.155-.076-.287z" transform="translate(-1533.972 1200.807)" style="fill:#a50c22"/>
    </g>
    <g data-name="Group 5349">
        <path data-name="Path 9825" d="M1566.4-1189.138c.1.186.163.316.227.445l.044-.016a22.392 22.392 0 0 1-.1-.488 11.786 11.786 0 0 1 2.291-.647l.212.765c-.254.083-.469.157-.727.244l1.283 4.506a4.094 4.094 0 0 1-1-.3c-.062-.023-.1-.144-.131-.227-.082-.25-.154-.5-.239-.792-.117.086-.2.155-.3.219a1.4 1.4 0 0 1-2.1-.826 1.281 1.281 0 0 1 .924-1.437.266.266 0 0 1 .189.042c.172.133.334.277.517.431-.189.126-.359.226-.51.346a1.154 1.154 0 0 0-.463.59.41.41 0 0 0 .092.448.355.355 0 0 0 .422.009 1.494 1.494 0 0 0 .648-.609c.07-.113.148-.223.248-.379l-.517-1.791c-.881.316-1.693.7-2.578 1.025l-.332-.8 1.893-.764" transform="translate(-1540.153 1199.718)" style="fill:#a50c22"/>
    </g>
    <g data-name="Group 5350">
        <path data-name="Path 9826" d="M1581.85-1181.224c-.238-.028-.365-.124-.377-.353a6.823 6.823 0 0 1 .123-1.968 1.637 1.637 0 0 1 .766-1.031.909.909 0 0 1 1.465.755l.017.234c.751-.024.943.165.889.9.11-.038.211-.073.329-.117.093.109.191.207.273.316.243.323.84.13.975-.224a.374.374 0 0 0-.09-.387c-.168-.2-.332-.413-.517-.645l.655-.542c.532.591 1 1.22 1.528 1.856-.23.188-.437.36-.662.542l-.426-.47c-.066.08-.125.144-.178.213a1.655 1.655 0 0 1-.974.619 1.185 1.185 0 0 1-.792-.141.409.409 0 0 0 .013.57 1.555 1.555 0 0 0 .761.525c.14.048.29.073.49.124a7.788 7.788 0 0 1-.812.653c-.046.033-.158.007-.226-.024a1.393 1.393 0 0 1-.906-1.838 8.694 8.694 0 0 1 .359-.827c-.246-.405-.522-.443-.851-.107-.192.2-.38.4-.6.639l-.315-.707c.157-.171.309-.34.466-.508.119-.129.256-.248.142-.45a.56.56 0 0 0-.591-.268.86.86 0 0 0-.557.487 3.9 3.9 0 0 0-.3 1.313c-.028.284-.048.569-.072.862" transform="translate(-1533.176 1201.813)" style="fill:#a50c22"/>
    </g>
    <g data-name="Group 5351">
        <path data-name="Path 9827" d="m1585.829-1155.947.631-.686c1.417.613 2.833 1.226 4.286 1.852a4.8 4.8 0 0 0-.4-.839c-.134-.282-.281-.558-.423-.835s-.283-.556-.423-.834-.285-.555-.427-.833-.28-.555-.428-.849l.62-.668c.113.216.206.387.292.562q1.1 2.226 2.191 4.45c.154.312.155.313-.08.562-.411.432-.278.4-.806.187q-2.361-.957-4.717-1.925c-.092-.038-.184-.083-.312-.143" transform="translate(-1531.375 1212.153)" style="fill:#a50c22"/>
    </g>
    <g data-name="Group 5352">
        <path data-name="Path 9828" d="M1551.255-1180.008c.134.3.234.574.37.827a.579.579 0 0 0 .27.195c.294.131.594.249.935.387-.1.257-.194.486-.3.751l-3.9-1.579c.106-.257.2-.479.305-.744.568.224 1.118.44 1.666.659l.058-.059c-.05-.111-.1-.222-.147-.332-.268-.565-.532-1.131-.809-1.691a.492.492 0 0 1-.016-.462c.106-.228.195-.463.315-.751.083.172.144.292.2.415.2.443.4.888.593 1.331.135.3.145.3.477.237.748-.145 1.5-.3 2.245-.442.121-.022.244-.035.421-.061-.129.321-.223.591-.349.848a.379.379 0 0 1-.254.136c-.605.1-1.211.185-1.818.275-.066.01-.133.03-.257.059" transform="translate(-1546.69 1202.615)" style="fill:#a50c22"/>
    </g>
    <g data-name="Group 5353">
        <path data-name="Path 9829" d="M1563.126-1190.633c.243-.065.483-.134.726-.191a.221.221 0 0 1 .157.047.484.484 0 0 0 .494.047c.5-.165.613-.407.435-.9-.042-.117-.093-.232-.159-.393-.065.1-.112.156-.147.219a1.1 1.1 0 0 1-1.687.36 1.881 1.881 0 0 1-.724-1.814 1.146 1.146 0 0 1 1.556-.927c.062.021.127.04.225.072l-.065-.373.608-.23a1.287 1.287 0 0 1 .1.185c.311.8.625 1.594.918 2.4a4.032 4.032 0 0 1 .186.84.742.742 0 0 1-.289.673 2.411 2.411 0 0 1-1.591.592.737.737 0 0 1-.744-.6m-.162-2.444a1.59 1.59 0 0 0 .326.888.639.639 0 0 0 .726.263.684.684 0 0 0 .479-.686 1.415 1.415 0 0 0-.38-.94.636.636 0 0 0-.757-.164.645.645 0 0 0-.394.639" transform="translate(-1541.103 1197.712)" style="fill:#a50c22"/>
    </g>
    <g data-name="Group 5354">
        <path data-name="Path 9830" d="m1553.64-1186.755.541-.515c.578.3 1.159.608 1.736.91a.614.614 0 0 0 .053-.051c-.3-.577-.677-1.109-1-1.7.171-.176.336-.35.511-.532l1.765.995a3.91 3.91 0 0 0-.466-.93c-.157-.295-.326-.583-.5-.888l.463-.485a18.4 18.4 0 0 1 1.54 2.778c-.158.146-.326.3-.535.488l-1.65-.906-.059.062c.3.553.654 1.076.978 1.649-.166.178-.33.353-.516.549-.939-.469-1.868-.929-2.86-1.422" transform="translate(-1544.626 1199.673)" style="fill:#a50c22"/>
    </g>
    <g data-name="Group 5355">
        <path data-name="Path 9831" d="M1561.293-1194.352c.685 1.235 1.349 2.438 2.034 3.672-.2.117-.385.227-.585.343a26.051 26.051 0 0 0-.239-.3 1.153 1.153 0 0 0-.087.161 1.168 1.168 0 0 1-1.933.512 2.192 2.192 0 0 1-.755-1.371 1.186 1.186 0 0 1 1.378-1.351 2.126 2.126 0 0 0 .224 0c-.241-.446-.466-.857-.706-1.3.224-.124.423-.236.668-.37m-.057 2.1a.676.676 0 0 0-.743.707 1.546 1.546 0 0 0 .5 1 .656.656 0 0 0 .794.129.674.674 0 0 0 .316-.742 1.59 1.59 0 0 0-.48-.862 1.617 1.617 0 0 0-.387-.228" transform="translate(-1542.126 1197.863)" style="fill:#a50c22"/>
    </g>
    <g data-name="Group 5356">
        <path data-name="Path 9832" d="m1585.06-1188.664-.3.27-.532-.415c.853-1.112 1.709-2.195 2.578-3.309.116.082.217.15.315.225s.174.148.284.24l-.885 1.169c.135.016.21.028.285.033a1.181 1.181 0 0 1 1.1 1.479 2.075 2.075 0 0 1-1.1 1.366 1.146 1.146 0 0 1-1.707-.859c0-.045-.019-.089-.041-.2m.426-.179a.619.619 0 0 0 .964.559 1.58 1.58 0 0 0 .713-.945.581.581 0 0 0-.185-.627.614.614 0 0 0-.638-.151 1.453 1.453 0 0 0-.854 1.163" transform="translate(-1532.034 1198.782)" style="fill:#a50c22"/>
    </g>
    <g data-name="Group 5357">
        <path data-name="Path 9833" d="m1597.756-1167.2-.144.871-5.472-.966.142-.771.753.087a8.705 8.705 0 0 1-.551-.676.939.939 0 0 1-.088-.8 1.652 1.652 0 0 1 .435-.745l.737.428c-.059.109-.106.188-.148.27a.975.975 0 0 0 .466 1.447 4.782 4.782 0 0 0 1.052.336c.826.165 1.66.295 2.49.442.09.017.179.044.327.079" transform="translate(-1528.777 1207.804)" style="fill:#a50c22"/>
    </g>
    <g data-name="Group 5358">
        <path data-name="Path 9834" d="M1560.188-1177.686v.541c-.185.066-.386.147-.593.206a.608.608 0 0 0-.461.413 1.241 1.241 0 0 1-.265.4.437.437 0 0 1-.507.124.529.529 0 0 1-.371-.419.81.81 0 0 1 .481-.878.417.417 0 0 0 .237-.481c-.028-.248-.2-.358-.417-.233a7.456 7.456 0 0 0-.667.494c-.192.148-.37.316-.575.446a1.274 1.274 0 0 1-.479.185.53.53 0 0 1-.639-.613.371.371 0 0 1 .018-.1c.287-.767.577-1.533.87-2.312a3.235 3.235 0 0 1 .8.26l-.687 1.848.063.032a2.485 2.485 0 0 1 .232-.243 5.84 5.84 0 0 1 .767-.586.744.744 0 0 1 1.1.314 5.013 5.013 0 0 1 .291.747l.356-.055c.13-.021.27-.052.448-.086" transform="translate(-1543.684 1203.805)" style="fill:#a50c22"/>
    </g>
    <g data-name="Group 5359">
        <path data-name="Path 9835" d="M1584.69-1175.992c.088-.393.158-.695.22-1 .032-.159.167-.178.281-.224q1.285-.523 2.571-1.042c.311-.125.618-.254.954-.392-.068-.21-.127-.4-.2-.634.253-.1.494-.2.782-.316.3.742.59 1.454.9 2.211-.264.113-.512.216-.793.333-.107-.238-.2-.456-.316-.711l-2.167.874-2.232.9" transform="translate(-1531.844 1203.937)" style="fill:#a50c22"/>
    </g>
    <g data-name="Group 5360">
        <path data-name="Path 9836" d="M1589.861-1183.127c.056-.113.1-.2.151-.306-.1-.045-.182-.085-.264-.121a1.265 1.265 0 0 1-.687-.741.834.834 0 0 1 .26-1 .816.816 0 0 1 1.053-.014 6.536 6.536 0 0 1 .51.467c.136.126.27.253.408.376a.6.6 0 0 0 .113.061c.286-.175.34-.27.285-.489-.086-.34-.317-.518-.758-.566-.041-.09-.093-.19-.135-.3s-.068-.189-.106-.3a.961.961 0 0 1 .991.169 2.378 2.378 0 0 1 .679 1.031.737.737 0 0 1-.275.92c-.291.208-.593.4-.892.594a3.18 3.18 0 0 0-.949.8l-.382-.59m1.089-1.015a7.64 7.64 0 0 0-.665-.589.359.359 0 0 0-.576.292.658.658 0 0 0 .137.408c.275.34.689.3 1.1-.111" transform="translate(-1530.073 1201.251)" style="fill:#a50c22"/>
    </g>
    <g data-name="Group 5361">
        <path data-name="Path 9837" d="M1554.026-1186.859a1.66 1.66 0 0 1 1.625 1.612 1.655 1.655 0 0 1-1.57 1.587 1.712 1.712 0 0 1-1.647-1.6 1.629 1.629 0 0 1 1.592-1.6m-.152.73a.722.722 0 0 0-.707.969 1.269 1.269 0 0 0 1.069.758.726.726 0 0 0 .686-.987 1.285 1.285 0 0 0-1.048-.74" transform="translate(-1545.123 1200.947)" style="fill:#a50c22"/>
    </g>
    <g data-name="Group 5362">
        <path data-name="Path 9838" d="m1559.982-1190.25.651-.294a1.124 1.124 0 0 1-.172 1.08 1.661 1.661 0 0 1-.93.628 1.232 1.232 0 0 1-1.141-.254 2.067 2.067 0 0 1-.752-1.213 1.255 1.255 0 0 1 .5-1.316 1.3 1.3 0 0 1 1.433-.185 2 2 0 0 1 .815.791c-.528.418-1.1.76-1.618 1.166a.68.68 0 0 0 .828.36c.3-.1.4-.3.383-.764m-.486-.678c-.319-.419-.682-.494-.977-.244a.609.609 0 0 0 .01.922l.967-.678" transform="translate(-1542.994 1198.856)" style="fill:#a50c22"/>
    </g>
    <g data-name="Group 5363">
        <path data-name="Path 9839" d="M1565.658-1193.334c.135.429.358.628.662.631s.476-.142.63-.588l.72-.061a1.175 1.175 0 0 1-.517.941 1.755 1.755 0 0 1-1.013.3 1.136 1.136 0 0 1-.893-.394 1.951 1.951 0 0 1-.453-1.774 1.247 1.247 0 0 1 1.059-.973 1.268 1.268 0 0 1 1.395.539 1.748 1.748 0 0 1 .326.851l-1.914.529m1.068-.771c-.174-.521-.5-.71-.874-.547a.591.591 0 0 0-.263.855l1.136-.309" transform="translate(-1540.059 1197.478)" style="fill:#a50c22"/>
    </g>
    <g data-name="Group 5364">
        <path data-name="Path 9840" d="M1593-1179.814c-.29-.613-.562-1.2-.836-1.773a.613.613 0 0 0-.522.645c.01.348.169.5.686.621.058.2.118.42.183.654a1.025 1.025 0 0 1-.978-.286 1.6 1.6 0 0 1-.513-1.105 1.445 1.445 0 0 1 .143-.663 2 2 0 0 1 1.992-.887 1.4 1.4 0 0 1 .657 2.28 1.943 1.943 0 0 1-.812.515m.076-.909c.436-.165.6-.507.445-.851s-.518-.435-.946-.223l.5 1.074" transform="translate(-1529.237 1202.681)" style="fill:#a50c22"/>
    </g>
    <g data-name="Group 5365">
        <path data-name="Path 9841" d="M1588.88-1186.663c-.48-.491-.929-.956-1.376-1.414a.645.645 0 0 0-.284.792c.119.308.319.4.861.36.076.11.165.23.245.354.045.067.08.138.127.222a1.055 1.055 0 0 1-1.127-.037 2.459 2.459 0 0 1-.574-.542 1.183 1.183 0 0 1-.1-1.366 2.077 2.077 0 0 1 1.023-.953 1.31 1.31 0 0 1 1.544.353 1.3 1.3 0 0 1 .2 1.571 2.209 2.209 0 0 1-.545.66m-.22-.877c.371-.363.4-.728.1-.994a.611.611 0 0 0-.922.135l.822.858" transform="translate(-1531.106 1199.916)" style="fill:#a50c22"/>
    </g>
    <g data-name="Group 5366">
        <path data-name="Path 9842" d="m1580.6-1192.655-1.863-.594a.639.639 0 0 0 .113.827c.268.231.5.213.919-.095l.621.326a1.059 1.059 0 0 1-1.043.508 2.415 2.415 0 0 1-.787-.23 1.179 1.179 0 0 1-.682-1.156 2.1 2.1 0 0 1 .448-1.287 1.314 1.314 0 0 1 1.493-.442 1.274 1.274 0 0 1 .956 1.256 1.88 1.88 0 0 1-.174.886m-.594-.668a.627.627 0 0 0-.109-.774.542.542 0 0 0-.637-.123.528.528 0 0 0-.37.537l1.115.36" transform="translate(-1534.648 1197.648)" style="fill:#a50c22"/>
    </g>
    <g data-name="Group 5367">
        <path data-name="Path 9843" d="M1554.294-1182.768c-.373-.215-.721-.415-1.071-.613-.21-.12-.42-.247-.638-.351-.322-.154-.542-.11-.711.117a.624.624 0 0 0 .052.826 2.12 2.12 0 0 0 .415.309c.347.212.7.408 1.049.613.088.052.171.11.277.179l-.37.652c-.875-.5-1.732-1-2.619-1.51.116-.213.219-.4.326-.6.129.049.232.088.367.137-.015-.144-.028-.255-.038-.367a1.2 1.2 0 0 1 .133-.7.892.892 0 0 1 1.31-.431c.634.33 1.248.7 1.9 1.073l-.385.666" transform="translate(-1545.846 1201.859)" style="fill:#a50c22"/>
    </g>
    <g data-name="Group 5368">
        <path data-name="Path 9844" d="M1594.63-1177.948c-.113-.194-.223-.382-.34-.586a.77.77 0 0 0 .007-.992c-.063-.11-.155-.216-.308-.165-.13.044-.158.16-.154.282.006.185.021.37.031.554a6.919 6.919 0 0 1 .025.762.809.809 0 0 1-1.118.725 1.05 1.05 0 0 1-.542-.414 2.106 2.106 0 0 1-.391-1.373 1.055 1.055 0 0 1 .494-.834l.349.645a.762.762 0 0 0-.131 1.023.7.7 0 0 0 .151.188.259.259 0 0 0 .452-.177 2.248 2.248 0 0 0-.016-.346c-.017-.3-.042-.6-.041-.9a.767.767 0 0 1 .526-.777.811.811 0 0 1 .943.24 2.1 2.1 0 0 1 .5 1.409.839.839 0 0 1-.437.734" transform="translate(-1528.903 1203.609)" style="fill:#a50c22"/>
    </g>
    <g data-name="Group 5369">
        <path data-name="Path 9845" d="m1558.518-1149.961-.755-.493c1.007-1.554 2-3.089 3.021-4.659.26.17.5.321.76.491l-3.025 4.66" transform="translate(-1542.929 1214.016)" style="fill:#a50c22"/>
    </g>
    <g data-name="Group 5370">
        <path data-name="Path 9846" d="m1593.5-1157.251-.518.74c-1.516-1.063-3.016-2.112-4.545-3.183l.509-.747c1.53 1.07 3.029 2.12 4.554 3.19" transform="translate(-1530.304 1211.822)" style="fill:#a50c22"/>
    </g>
    <g data-name="Group 5371">
        <path data-name="Path 9847" d="m1577.116-1146.515-.888.158c-.354-1.823-.7-3.608-1.059-5.44.3-.057.576-.109.888-.17.354 1.825.7 3.61 1.059 5.452" transform="translate(-1535.764 1215.311)" style="fill:#a50c22"/>
    </g>
    <g data-name="Group 5372">
        <path data-name="Path 9848" d="m1583.113-1194.32.71.391c-.567 1.025-1.118 2.021-1.692 3.062.618.347 1.215.685 1.848 1.042l-.312.585-2.577-1.427 2.023-3.652" transform="translate(-1533.326 1197.876)" style="fill:#a50c22"/>
    </g>
    <g data-name="Group 5373">
        <path data-name="Path 9849" d="m1591.286-1181.733-.455.343a4.352 4.352 0 0 1-.373-.46.675.675 0 0 1 .24-1.06c.361-.23.735-.436 1.1-.653.119-.069.236-.143.371-.224l-.11-.352.453-.268.237.262a.464.464 0 0 0 .137-.049.567.567 0 0 1 .806.014c.089.069.188.123.33.213l-.878.528c.076.159.144.3.229.483-.152.1-.3.189-.471.294l-.332-.455c-.468.274-.926.538-1.378.812a.226.226 0 0 0-.062.358c.044.065.091.129.151.215" transform="translate(-1529.536 1201.956)" style="fill:#a50c22"/>
    </g>
    <g data-name="Group 5374">
        <path data-name="Path 9850" d="m1555.8-1190.832.594-.485c.9 1.076 1.786 2.129 2.695 3.21l-.577.507-2.712-3.231" transform="translate(-1543.736 1199.112)" style="fill:#a50c22"/>
    </g>
    <g data-name="Group 5375">
        <path data-name="Path 9851" d="M1577.565-1186.527c.175-.343.323-.638.479-.933a.244.244 0 0 1 .3-.1 1.192 1.192 0 0 1 .823.638 1.9 1.9 0 0 1-.653 2.421.55.55 0 0 1-.7-.041.383.383 0 0 1 .1-.685 2.392 2.392 0 0 0 .487-.257 1.054 1.054 0 0 0 .308-.365.433.433 0 0 0-.272-.637 2.8 2.8 0 0 0-.577-.075 1.633 1.633 0 0 0-.291.032" transform="translate(-1534.777 1200.654)" style="fill:#a50c22"/>
    </g>
    <g data-name="Group 5376">
        <path data-name="Path 9852" d="M1588.317-1185.29c-.164-.2-.313-.386-.48-.592.795-.642 1.563-1.266 2.354-1.905l.426.517-.229.289c.284.041.562.017.748.247a.693.693 0 0 1 .188.5c-.19.072-.379.144-.584.22-.044-.087-.078-.159-.116-.227a.47.47 0 0 0-.7-.234 3.9 3.9 0 0 0-.61.4c-.332.249-.651.514-1 .792" transform="translate(-1530.549 1200.565)" style="fill:#a50c22"/>
    </g>
    <g data-name="Group 5377">
        <path data-name="Path 9853" d="M1554.71-1177.155c.387-1.011.754-1.966 1.132-2.949l.812.309c-.383.994-.751 1.958-1.131 2.949l-.813-.309" transform="translate(-1544.186 1203.728)" style="fill:#a50c22"/>
    </g>
    <g data-name="Group 5378">
        <path data-name="Path 9854" d="m1584.91-1192.243.651.405c-.534.856-1.057 1.693-1.6 2.568a69.982 69.982 0 0 0-.654-.4l1.606-2.571" transform="translate(-1532.415 1198.731)" style="fill:#a50c22"/>
    </g>
    <g data-name="Group 5379">
        <path data-name="Path 9855" d="M1584.245-1178.133a1.308 1.308 0 0 1 .71.737.68.68 0 0 1 .013.6 3.072 3.072 0 0 1-.335.564c-.272.345-.566.671-.855 1-.144.162-.151.158-.442.056.047-.079.085-.158.134-.229.26-.369.528-.731.782-1.1.174-.257.162-.323-.054-.539-.155-.155-.32-.3-.511-.474.092-.106.178-.207.268-.306s.189-.2.289-.311" transform="translate(-1532.402 1204.539)" style="fill:#a50c22"/>
    </g>
    <g data-name="Group 5380">
        <path data-name="Path 9856" d="m1580.486-1187.043-1.832-.935.39-.775 1.834.931c-.134.27-.257.511-.391.779" transform="translate(-1534.329 1200.168)" style="fill:#a50c22"/>
    </g>
    <g data-name="Group 5381">
        <path data-name="Path 9857" d="m1581.945-1186.383-.009.007c-.085.114-.178.075-.271.016-.518-.323-1.038-.645-1.588-.991.153-.247.3-.476.455-.74.583.364 1.148.714 1.728 1.077l-.315.631" transform="translate(-1533.743 1200.44)" style="fill:#a50c22"/>
    </g>
    <g data-name="Group 5382">
        <path data-name="Path 9858" d="m1588.046-1159.97-.857-.6.52-.733.848.59-.511.743" transform="translate(-1530.816 1211.467)" style="fill:#a50c22"/>
    </g>
    <g data-name="Group 5383">
        <path data-name="Path 9859" d="m1560.893-1156.382.728.474a4.938 4.938 0 0 1-.549.887c-.245-.16-.481-.311-.748-.483.2-.3.374-.576.569-.878" transform="translate(-1541.875 1213.493)" style="fill:#a50c22"/>
    </g>
    <g data-name="Group 5384">
        <path data-name="Path 9860" d="m1584.621-1192.352.368-.593.648.4-.367.6-.649-.4" transform="translate(-1531.873 1198.442)" style="fill:#a50c22"/>
    </g>
</svg>
